<svg xmlns="http://www.w3.org/2000/svg" viewBox="0 0 1600 900"><rect width="1600" height="900" fill="#18212b"/><circle cx="800" cy="220" r="250" fill="#b65235" opacity=".35"/><path d="M0 600Q350 470 750 620T1600 560V900H0z" fill="#080a0d"/><g fill="#11151b"><path d="M150 690l65-240 60 240m40 0l50-270 65 270m80 0l55-230 70 230m530 0l70-260 65 260m40 0l45-230 75 230m35 0l55-250 70 250"/><g transform="translate(680 300)"><path d="M90 330l30-180 28 180zM0 330l70-300 50 300zM120 330l75-290 42 290z"/></g></g><g stroke="#b9a378" stroke-width="4" opacity=".4"><path d="M250 380l260 310m-120-350l-100 360m1030-350l-180 340m330-360l-260 390"/></g></svg>
