<svg xmlns="http://www.w3.org/2000/svg" viewBox="0 0 1600 900"><defs><linearGradient id="s" y2="1"><stop stop-color="#1c2836"/><stop offset=".55" stop-color="#46332d"/><stop offset="1" stop-color="#090b0f"/></linearGradient><radialGradient id="f"><stop stop-color="#e2683f"/><stop offset="1" stop-color="#74251f" stop-opacity="0"/></radialGradient></defs><rect width="1600" height="900" fill="url(#s)"/><circle cx="1200" cy="270" r="300" fill="url(#f)"/><path d="M0 680l250-90 170 44 260-110 250 75 190-140 220 120 260-80v401H0z" fill="#090b0e"/><g fill="#151318"><path d="M1040 560l55-220 40 220zM1120 550l80-310 45 310zM1240 570l55-240 40 240z"/><path d="M330 690l30-220 18 220m-80 0l15-180 20 180m200-20l25-210 18 210"/></g><g stroke="#d49056" stroke-width="5" opacity=".5"><path d="M1040 310l340 280M1360 300l-300 300M470 380l160 270"/></g></svg>
